<svg width="22" height="8" viewBox="0 0 22 8" fill="none" xmlns="http://www.w3.org/2000/svg">
<path d="M13.8438 4.00094C13.8438 4.69321 13.677 5.36994 13.3645 5.94554C13.052 6.52115 12.6079 6.96978 12.0883 7.2347C11.5686 7.49962 10.9969 7.56894 10.4452 7.43388C9.89358 7.29883 9.38688 6.96547 8.98917 6.47595C8.59147 5.98644 8.32062 5.36276 8.2109 4.68379C8.10117 4.00482 8.15749 3.30104 8.37272 2.66147C8.58796 2.02189 8.95245 1.47523 9.4201 1.09062C9.88776 0.706016 10.4376 0.500732 11 0.500732C11.7534 0.504027 12.4752 0.873855 13.0079 1.52956C13.5406 2.18526 13.8411 3.07364 13.8438 4.00094V4.00094ZM2.875 0.500732C2.31256 0.500732 1.76275 0.706016 1.2951 1.09062C0.827447 1.47523 0.462956 2.02189 0.247719 2.66147C0.0324821 3.30104 -0.0238336 4.00482 0.0858932 4.68379C0.19562 5.36276 0.466461 5.98644 0.864167 6.47595C1.26187 6.96547 1.76858 7.29883 2.32021 7.43388C2.87185 7.56894 3.44363 7.49962 3.96326 7.2347C4.48289 6.96978 4.92702 6.52115 5.2395 5.94554C5.55197 5.36994 5.71875 4.69321 5.71875 4.00094C5.71608 3.07364 5.41561 2.18526 4.88288 1.52956C4.35015 0.873855 3.62839 0.504027 2.875 0.500732V0.500732ZM19.125 0.500732C18.5626 0.500732 18.0128 0.706016 17.5451 1.09062C17.0775 1.47523 16.713 2.02189 16.4977 2.66147C16.2825 3.30104 16.2262 4.00482 16.3359 4.68379C16.4456 5.36276 16.7165 5.98644 17.1142 6.47595C17.5119 6.96547 18.0186 7.29883 18.5702 7.43388C19.1219 7.56894 19.6936 7.49962 20.2133 7.2347C20.7329 6.96978 21.177 6.52115 21.4895 5.94554C21.802 5.36994 21.9688 4.69321 21.9688 4.00094C21.9661 3.07364 21.6656 2.18526 21.1329 1.52956C20.6002 0.873855 19.8784 0.504027 19.125 0.500732Z" fill="#D9EEFF"/>
</svg>
