<svg width="22" height="27" viewBox="0 0 22 27" fill="none" xmlns="http://www.w3.org/2000/svg">
<path d="M22 13.0009C21.9993 13.3448 21.9104 13.6828 21.7419 13.9826C21.5734 14.2824 21.3309 14.534 21.0375 14.7134L3.03751 25.7009C2.73768 25.8909 2.39141 25.9949 2.03651 26.0015C1.68161 26.0082 1.33171 25.9171 1.02501 25.7384C0.713773 25.5677 0.454317 25.3162 0.27394 25.0104C0.0935623 24.7047 -0.00106682 24.3559 9.07295e-06 24.0009V2.00094C-0.00106682 1.64594 0.0935623 1.29721 0.27394 0.991448C0.454317 0.685686 0.713773 0.434195 1.02501 0.263436C1.33171 0.0847349 1.68161 -0.00627672 2.03651 0.000336364C2.39141 0.00694945 2.73768 0.110933 3.03751 0.300936L21.0375 11.2884C21.3309 11.4679 21.5734 11.7195 21.7419 12.0193C21.9104 12.3191 21.9993 12.657 22 13.0009Z" fill="#153047"/>
</svg>
