<svg width="26" height="33" viewBox="0 0 26 33" fill="none" xmlns="http://www.w3.org/2000/svg">
<path d="M25.7157 16.0009C25.7169 16.3361 25.6496 16.6664 25.5201 16.9613C25.3905 17.2562 25.2028 17.5062 24.9743 17.6885L15.9149 24.8514C15.669 25.0475 15.3847 25.1581 15.092 25.1716C14.7992 25.185 14.509 25.1009 14.2519 24.9279C13.9949 24.755 13.7806 24.4998 13.6317 24.1892C13.4828 23.8787 13.405 23.5244 13.4063 23.1638V17.8385L4.53986 24.8514C4.29401 25.0475 4.00968 25.1581 3.71694 25.1716C3.42421 25.185 3.13395 25.1009 2.8769 24.9279C2.61985 24.755 2.40556 24.4998 2.2567 24.1892C2.10784 23.8787 2.02995 23.5244 2.03127 23.1638V8.83799C2.02995 8.47743 2.10784 8.12314 2.2567 7.8126C2.40556 7.50206 2.61985 7.24682 2.8769 7.0739C3.13395 6.90097 3.42421 6.81679 3.71694 6.83025C4.00968 6.84372 4.29401 6.95433 4.53986 7.1504L13.4063 14.1633V8.83799C13.405 8.47743 13.4828 8.12314 13.6317 7.8126C13.7806 7.50206 13.9949 7.24682 14.2519 7.0739C14.509 6.90097 14.7992 6.81679 15.092 6.83025C15.3847 6.84372 15.669 6.95433 15.9149 7.1504L24.9743 14.3133C25.2028 14.4956 25.3905 14.7457 25.5201 15.0406C25.6496 15.3354 25.7169 15.6657 25.7157 16.0009Z" fill="#153047"/>
</svg>
