<svg width="24" height="20" viewBox="0 0 24 20" fill="none" xmlns="http://www.w3.org/2000/svg">
<path d="M23.7157 10.0009C23.7169 10.3361 23.6496 10.6664 23.5201 10.9613C23.3905 11.2562 23.2028 11.5062 22.9743 11.6885L13.9149 18.8514C13.669 19.0475 13.3847 19.1581 13.092 19.1716C12.7992 19.185 12.509 19.1009 12.2519 18.9279C11.9949 18.755 11.7806 18.4998 11.6317 18.1892C11.4828 17.8787 11.405 17.5244 11.4063 17.1638V11.8385L2.53986 18.8514C2.29401 19.0475 2.00968 19.1581 1.71694 19.1716C1.42421 19.185 1.13395 19.1009 0.876903 18.9279C0.61985 18.755 0.405557 18.4998 0.256696 18.1892C0.107836 17.8787 0.0299456 17.5244 0.0312665 17.1638V2.83799C0.0299456 2.47743 0.107836 2.12314 0.256696 1.8126C0.405557 1.50206 0.61985 1.24682 0.876903 1.0739C1.13395 0.90097 1.42421 0.816787 1.71694 0.830253C2.00968 0.84372 2.29401 0.954335 2.53986 1.1504L11.4063 8.1633V2.83799C11.405 2.47743 11.4828 2.12314 11.6317 1.8126C11.7806 1.50206 11.9949 1.24682 12.2519 1.0739C12.509 0.90097 12.7992 0.816787 13.092 0.830253C13.3847 0.84372 13.669 0.954335 13.9149 1.1504L22.9743 8.31331C23.2028 8.49559 23.3905 8.74567 23.5201 9.04055C23.6496 9.33544 23.7169 9.66568 23.7157 10.0009Z" fill="#D9EEFF"/>
</svg>
